<svg width="594" height="330" viewBox="0 0 594 330" fill="none" xmlns="http://www.w3.org/2000/svg">
<g filter="url(#filter0_d_1_5)">
<rect x="6" y="6" width="573.88" height="310" fill="#0D3FBF" fill-opacity="0.74902" shape-rendering="crispEdges"/>
</g>
<path d="M219.406 134V111.375H228.406C233.391 111.375 235.922 113.781 235.906 117.188C235.922 119.844 234.172 121.516 231.844 122.031V122.25C234.391 122.375 236.797 124.406 236.812 127.75C236.797 131.344 234.109 134 229 134H219.406ZM224.094 130.125H228.062C230.781 130.141 231.953 129.016 231.938 127.312C231.953 125.406 230.5 124.062 228.188 124.062H224.094V130.125ZM224.094 120.844H227.719C229.688 120.859 231.172 119.75 231.156 117.938C231.172 116.297 229.953 115.188 227.812 115.188H224.094V120.844ZM252.062 117.844C251.875 116.047 250.453 115 248.156 115C245.781 115 244.453 116.094 244.438 117.594C244.422 119.234 246.109 119.969 248.062 120.406L250.094 120.906C253.969 121.797 256.859 123.766 256.875 127.531C256.859 131.672 253.641 134.328 248.125 134.312C242.656 134.328 239.172 131.797 239.031 126.938H243.594C243.75 129.219 245.562 130.375 248.062 130.375C250.531 130.375 252.125 129.219 252.125 127.531C252.125 125.984 250.719 125.266 248.25 124.656L245.781 124.062C241.969 123.125 239.625 121.219 239.625 117.906C239.609 113.797 243.234 111.062 248.188 111.062C253.203 111.062 256.5 113.844 256.562 117.844H252.062ZM272.219 117.844C272.031 116.047 270.609 115 268.312 115C265.938 115 264.609 116.094 264.594 117.594C264.578 119.234 266.266 119.969 268.219 120.406L270.25 120.906C274.125 121.797 277.016 123.766 277.031 127.531C277.016 131.672 273.797 134.328 268.281 134.312C262.812 134.328 259.328 131.797 259.188 126.938H263.75C263.906 129.219 265.719 130.375 268.219 130.375C270.688 130.375 272.281 129.219 272.281 127.531C272.281 125.984 270.875 125.266 268.406 124.656L265.938 124.062C262.125 123.125 259.781 121.219 259.781 117.906C259.766 113.797 263.391 111.062 268.344 111.062C273.359 111.062 276.656 113.844 276.719 117.844H272.219ZM280.094 111.375H285.906L292.188 126.719H292.438L298.719 111.375H304.531V134H299.969V119.188H299.781L293.875 133.906H290.75L284.844 119.125H284.656V134H280.094V111.375ZM219.406 172V149.375H228.281C233.422 149.375 236.375 152.547 236.375 157C236.375 161.516 233.375 164.625 228.156 164.625H224.094V172H219.406ZM224.094 160.844H227.406C230.188 160.844 231.547 159.281 231.531 157C231.547 154.75 230.188 153.234 227.406 153.219H224.094V160.844ZM260.062 160.688C260.062 168.078 255.484 172.312 249.5 172.312C243.469 172.312 238.906 168.047 238.906 160.688C238.906 153.297 243.469 149.062 249.5 149.062C255.484 149.062 260.062 153.297 260.062 160.688ZM243.688 160.688C243.688 165.516 245.984 168.141 249.5 168.156C252.984 168.141 255.297 165.516 255.281 160.688C255.297 155.844 252.984 153.234 249.5 153.219C245.984 153.234 243.688 155.844 243.688 160.688ZM263.438 172V149.375H272.312C277.453 149.375 280.406 152.266 280.406 156.75C280.406 159.844 278.984 162.094 276.406 163.203L281.219 172H276.031L271.703 163.969H268.125V172H263.438ZM268.125 160.156H271.438C274.219 160.156 275.578 159.016 275.562 156.75C275.578 154.469 274.219 153.234 271.438 153.219H268.125V160.156ZM282.781 153.25V149.375H301.312V153.25H294.375V172H289.719V153.25H282.781ZM304.219 172V149.375H319.125V153.25H308.906V158.75H318.156V162.625H308.906V172H304.219ZM342.938 160.688C342.938 168.078 338.359 172.312 332.375 172.312C326.344 172.312 321.781 168.047 321.781 160.688C321.781 153.297 326.344 149.062 332.375 149.062C338.359 149.062 342.938 153.297 342.938 160.688ZM326.562 160.688C326.562 165.516 328.859 168.141 332.375 168.156C335.859 168.141 338.172 165.516 338.156 160.688C338.172 155.844 335.859 153.234 332.375 153.219C328.859 153.234 326.562 155.844 326.562 160.688ZM346.312 172V149.375H351V168.125H360.75V172H346.312ZM368.469 149.375V172H363.781V149.375H368.469ZM393 160.688C393 168.078 388.422 172.312 382.438 172.312C376.406 172.312 371.844 168.047 371.844 160.688C371.844 153.297 376.406 149.062 382.438 149.062C388.422 149.062 393 153.297 393 160.688ZM376.625 160.688C376.625 165.516 378.922 168.141 382.438 168.156C385.922 168.141 388.234 165.516 388.219 160.688C388.234 155.844 385.922 153.234 382.438 153.219C378.922 153.234 376.625 155.844 376.625 160.688ZM224.469 210L218 187.375H223.125L226.938 203.188H227.125L231.281 187.375H235.688L239.844 203.219H240.031L243.844 187.375H248.969L242.5 210H237.906L233.594 195.062H233.406L229.062 210H224.469ZM251.375 210V187.375H266.562V191.25H256.062V196.75H265.781V200.625H256.062V206.125H266.594V210H251.375ZM270.219 210V187.375H279.219C284.203 187.375 286.734 189.781 286.719 193.188C286.734 195.844 284.984 197.516 282.656 198.031V198.25C285.203 198.375 287.609 200.406 287.625 203.75C287.609 207.344 284.922 210 279.812 210H270.219ZM274.906 206.125H278.875C281.594 206.141 282.766 205.016 282.75 203.312C282.766 201.406 281.312 200.062 279 200.062H274.906V206.125ZM274.906 196.844H278.531C280.5 196.859 281.984 195.75 281.969 193.938C281.984 192.297 280.766 191.188 278.625 191.188H274.906V196.844ZM302.875 193.844C302.688 192.047 301.266 191 298.969 191C296.594 191 295.266 192.094 295.25 193.594C295.234 195.234 296.922 195.969 298.875 196.406L300.906 196.906C304.781 197.797 307.672 199.766 307.688 203.531C307.672 207.672 304.453 210.328 298.938 210.312C293.469 210.328 289.984 207.797 289.844 202.938H294.406C294.562 205.219 296.375 206.375 298.875 206.375C301.344 206.375 302.938 205.219 302.938 203.531C302.938 201.984 301.531 201.266 299.062 200.656L296.594 200.062C292.781 199.125 290.438 197.219 290.438 193.906C290.422 189.797 294.047 187.062 299 187.062C304.016 187.062 307.312 189.844 307.375 193.844H302.875ZM315.438 187.375V210H310.75V187.375H315.438ZM318.375 191.25V187.375H336.906V191.25H329.969V210H325.312V191.25H318.375ZM339.812 210V187.375H355V191.25H344.5V196.75H354.219V200.625H344.5V206.125H355.031V210H339.812Z" fill="white"/>
<defs>
<filter id="filter0_d_1_5" x="0" y="0" width="593.88" height="330" filterUnits="userSpaceOnUse" color-interpolation-filters="sRGB">
<feFlood flood-opacity="0" result="BackgroundImageFix"/>
<feColorMatrix in="SourceAlpha" type="matrix" values="0 0 0 0 0 0 0 0 0 0 0 0 0 0 0 0 0 0 127 0" result="hardAlpha"/>
<feOffset dx="4" dy="4"/>
<feGaussianBlur stdDeviation="5"/>
<feComposite in2="hardAlpha" operator="out"/>
<feColorMatrix type="matrix" values="0 0 0 0 0 0 0 0 0 0 0 0 0 0 0 0 0 0 0.2 0"/>
<feBlend mode="normal" in2="BackgroundImageFix" result="effect1_dropShadow_1_5"/>
<feBlend mode="normal" in="SourceGraphic" in2="effect1_dropShadow_1_5" result="shape"/>
</filter>
</defs>
</svg>
